<svg width="24" height="24" viewBox="0 0 24 24" fill="none" xmlns="http://www.w3.org/2000/svg">
<g clip-path="url(#clip0)">
<path d="M10 4H4C2.9 4 2.01 4.9 2.01 6L2 18C2 19.1 2.9 20 4 20H20C21.1 20 22 19.1 22 18V8C22 6.9 21.1 6 20 6H12L10 4Z" fill="#333333"/>
<path d="M6.72793 7.975H8.87793V16H6.72793V12.825H5.15293V16H3.00293V7.975H5.15293V11.2625H6.72793V7.975ZM10.0005 7.975H13.688C14.913 7.975 15.5255 8.49167 15.5255 9.525V14.45C15.5255 15.4833 14.913 16 13.688 16H10.0005V7.975ZM13.338 14.2875V9.6875C13.338 9.50417 13.2338 9.4125 13.0255 9.4125H12.188V14.5625H13.0255C13.2338 14.5625 13.338 14.4708 13.338 14.2875ZM21.3042 9.5375H18.6792V11.4875H20.9542V12.925H18.6792V16H16.4917V7.975H21.3042V9.5375Z" fill="white"/>
</g>
<defs>
<clipPath id="clip0">
<rect width="24" height="24" fill="white"/>
</clipPath>
</defs>
</svg>
