<svg width="24" height="24" viewBox="0 0 24 24" fill="none" xmlns="http://www.w3.org/2000/svg">
<rect x="2" y="2" width="20" height="20" fill="#616161"/>
<path d="M4 16H20V20H4V16Z" fill="white"/>
<rect x="4" y="13" width="16" height="3" fill="#BDBDBD"/>
<path d="M9.60732 3.975H11.6073V12H9.73232L7.94482 7.7875V12H5.94482V3.975H7.81982L9.60732 8.2625V3.975ZM15.9724 6.9875V5.6875C15.9724 5.50417 15.8682 5.4125 15.6599 5.4125H14.7599V7.2625H15.6599C15.8682 7.2625 15.9724 7.17083 15.9724 6.9875ZM15.9724 10.2875V8.975C15.9724 8.79167 15.8682 8.7 15.6599 8.7H14.7599V10.5625H15.6599C15.8682 10.5625 15.9724 10.4708 15.9724 10.2875ZM12.6099 3.975H16.2849C17.5099 3.975 18.1224 4.49167 18.1224 5.525V6.55C18.1224 7.275 17.9224 7.74583 17.5224 7.9625C17.7557 8.0625 17.914 8.21667 17.9974 8.425C18.0807 8.625 18.1224 8.9 18.1224 9.25V10.45C18.1224 11.4833 17.5099 12 16.2849 12H12.6099V3.975Z" fill="white"/>
</svg>
