<svg width="24" height="24" viewBox="0 0 24 24" fill="none" xmlns="http://www.w3.org/2000/svg">
<g clip-path="url(#clip0)">
<rect x="2" y="2" width="20" height="20" fill="#616161"/>
<path d="M3.28979 7.975H7.0023C8.2273 7.975 8.8398 8.49167 8.8398 9.525V11.825C8.8398 12.8583 8.2273 13.375 7.0023 13.375H5.47729V16H3.28979V7.975ZM6.6523 11.5375V9.8125C6.6523 9.62917 6.54813 9.5375 6.3398 9.5375H5.47729V11.8125H6.3398C6.54813 11.8125 6.6523 11.7208 6.6523 11.5375ZM9.71362 7.975H13.4011C14.6261 7.975 15.2386 8.49167 15.2386 9.525V14.45C15.2386 15.4833 14.6261 16 13.4011 16H9.71362V7.975ZM13.0511 14.2875V9.6875C13.0511 9.50417 12.947 9.4125 12.7386 9.4125H11.9011V14.5625H12.7386C12.947 14.5625 13.0511 14.4708 13.0511 14.2875ZM21.0173 9.5375H18.3923V11.4875H20.6673V12.925H18.3923V16H16.2048V7.975H21.0173V9.5375Z" fill="white"/>
</g>
<defs>
<clipPath id="clip0">
<rect width="24" height="24" fill="white"/>
</clipPath>
</defs>
</svg>
