<svg width="24" height="24" viewBox="0 0 24 24" fill="none" xmlns="http://www.w3.org/2000/svg">
<g clip-path="url(#clip0)">
<rect x="2" y="2" width="20" height="20" fill="white"/>
<path d="M5.41626 13.15V16H3.22876V7.975H6.94126C8.16626 7.975 8.77876 8.49167 8.77876 9.525V11.6C8.77876 12.3917 8.42043 12.8792 7.70376 13.0625L9.17876 16H6.82876L5.55376 13.15H5.41626ZM6.27876 9.5375H5.41626V11.6625H6.27876C6.48709 11.6625 6.59126 11.5708 6.59126 11.3875V9.8125C6.59126 9.62917 6.48709 9.5375 6.27876 9.5375ZM9.77466 7.975H13.4622C14.6872 7.975 15.2997 8.49167 15.2997 9.525V14.45C15.2997 15.4833 14.6872 16 13.4622 16H9.77466V7.975ZM13.1122 14.2875V9.6875C13.1122 9.50417 13.008 9.4125 12.7997 9.4125H11.9622V14.5625H12.7997C13.008 14.5625 13.1122 14.4708 13.1122 14.2875ZM21.0784 9.5375H18.4534V11.4875H20.7284V12.925H18.4534V16H16.2659V7.975H21.0784V9.5375Z" fill="#616161"/>
</g>
<defs>
<clipPath id="clip0">
<rect width="24" height="24" fill="white"/>
</clipPath>
</defs>
</svg>
