<svg width="24" height="24" viewBox="0 0 24 24" fill="none" xmlns="http://www.w3.org/2000/svg">
<g clip-path="url(#clip0)">
<rect x="2" y="2" width="20" height="20" fill="#616161"/>
<path d="M8.23716 7.975V9.5375H6.68716V16H4.49966V9.5375H2.96216V7.975H8.23716ZM11.8702 14.1625V13.025C11.8702 12.8417 11.766 12.75 11.5577 12.75H10.3577C9.741 12.75 9.3035 12.6167 9.04517 12.35C8.79517 12.075 8.67017 11.6833 8.67017 11.175V9.525C8.67017 8.49167 9.2785 7.975 10.4952 7.975H12.2077C13.4243 7.975 14.0327 8.49167 14.0327 9.525V10.4875H11.8452V9.8125C11.8452 9.62917 11.741 9.5375 11.5327 9.5375H11.1702C10.9618 9.5375 10.8577 9.62917 10.8577 9.8125V11C10.8577 11.1833 10.9618 11.275 11.1702 11.275H12.3452C12.9618 11.275 13.3993 11.4042 13.6577 11.6625C13.9243 11.9208 14.0577 12.3 14.0577 12.8V14.45C14.0577 15.4833 13.4493 16 12.2327 16H10.5327C9.30767 16 8.69517 15.4833 8.69517 14.45V13.4875H10.8827V14.1625C10.8827 14.3458 10.9868 14.4375 11.1952 14.4375H11.5577C11.766 14.4375 11.8702 14.3458 11.8702 14.1625ZM18.7353 7.975H21.0103L19.0353 16H16.4978L14.5228 7.975H16.7978L17.7603 13.3375L18.7353 7.975Z" fill="white"/>
</g>
<defs>
<clipPath id="clip0">
<rect width="24" height="24" fill="white"/>
</clipPath>
</defs>
</svg>
