<svg width="24" height="24" viewBox="0 0 24 24" fill="none" xmlns="http://www.w3.org/2000/svg">
<g clip-path="url(#clip0)">
<rect x="2" y="2" width="20" height="20" fill="#333333"/>
<path d="M8.37793 10.975H6.19043V9.6875C6.19043 9.50417 6.08626 9.4125 5.87793 9.4125H5.44043C5.2321 9.4125 5.12793 9.50417 5.12793 9.6875V14.2875C5.12793 14.4708 5.2321 14.5625 5.44043 14.5625H5.87793C6.08626 14.5625 6.19043 14.4708 6.19043 14.2875V13.05H8.37793V14.45C8.37793 15.4833 7.76543 16 6.54043 16H4.77793C3.55293 16 2.94043 15.4833 2.94043 14.45V9.525C2.94043 8.49167 3.55293 7.975 4.77793 7.975H6.54043C7.76543 7.975 8.37793 8.49167 8.37793 9.525V10.975ZM12.2669 14.1625V13.025C12.2669 12.8417 12.1627 12.75 11.9544 12.75H10.7544C10.1377 12.75 9.70023 12.6167 9.44189 12.35C9.19189 12.075 9.06689 11.6833 9.06689 11.175V9.525C9.06689 8.49167 9.67523 7.975 10.8919 7.975H12.6044C13.8211 7.975 14.4294 8.49167 14.4294 9.525V10.4875H12.2419V9.8125C12.2419 9.62917 12.1377 9.5375 11.9294 9.5375H11.5669C11.3586 9.5375 11.2544 9.62917 11.2544 9.8125V11C11.2544 11.1833 11.3586 11.275 11.5669 11.275H12.7419C13.3586 11.275 13.7961 11.4042 14.0544 11.6625C14.3211 11.9208 14.4544 12.3 14.4544 12.8V14.45C14.4544 15.4833 13.8461 16 12.6294 16H10.9294C9.70439 16 9.09189 15.4833 9.09189 14.45V13.4875H11.2794V14.1625C11.2794 14.3458 11.3836 14.4375 11.5919 14.4375H11.9544C12.1627 14.4375 12.2669 14.3458 12.2669 14.1625ZM19.132 7.975H21.407L19.432 16H16.8945L14.9195 7.975H17.1945L18.157 13.3375L19.132 7.975Z" fill="white"/>
</g>
<defs>
<clipPath id="clip0">
<rect width="24" height="24" fill="white"/>
</clipPath>
</defs>
</svg>
